<?xml version="1.0" encoding="UTF-8" standalone="no" ?>
<!DOCTYPE svg PUBLIC "-//W3C//DTD SVG 1.1//EN" "http://www.w3.org/Graphics/SVG/1.1/DTD/svg11.dtd">
<svg xmlns="http://www.w3.org/2000/svg" xmlns:xlink="http://www.w3.org/1999/xlink" version="1.1" width="456" height="456" viewBox="0 0 456 456" xml:space="preserve">
<desc>Created with Fabric.js 3.6.6</desc>
<defs>
</defs>
<g transform="matrix(1.63 0 0 1.84 228.19 227.87)"  >
<path style="stroke: none; stroke-width: 1; stroke-dasharray: none; stroke-linecap: butt; stroke-dashoffset: 0; stroke-linejoin: miter; stroke-miterlimit: 4; fill: rgb(255,255,255); fill-rule: nonzero; opacity: 1;"  transform=" translate(-139.45, -19.96)" d="M 31.953 38.5937 l 6.5625 0 l 0 -27.422 l -6.5625 9.6094 l 0 17.813 z M 38.516 1.4059999999999988 l -7.0313 0 l -11.484 17.813 l -11.406 -17.813 l -7.0313 0 l 0 37.188 l 6.5625 0 l 0 -26.406 l 11.719 17.578 l 0.23438 0 l 10.234 -15.156 c 0.052109 -0.20836 2.7865 -4.6094 8.2031 -13.203 z M 46.0938 1.4059999999999988 l 27.813 0 l 0 5.9375 l -27.813 0 l 0 -5.9375 z M 46.0938 32.6562 l 27.734 0 l 0 5.9375 l -27.734 0 l 0 -5.9375 z M 46.0938 16.875 l 25.078 0 l 0 5.8594 l -25.078 0 l 0 -5.8594 z M 112.813 27.344 c -0.98961 2.3959 -2.3438 4.375 -4.0625 5.9375 c -1.7709 1.6666 -3.8542 2.9688 -6.2501 3.9063 s -5.0781 1.4063 -8.0469 1.4063 l -8.6719 0 l 0 -5.9375 l 8.5938 0 c 1.9791 0 3.776 -0.3125 5.3906 -0.9375 c 1.5625 -0.625 2.9166 -1.5104 4.0625 -2.6563 s 2.0313 -2.5 2.6563 -4.0625 s 0.9375 -3.2813 0.9375 -5.1563 c 0 -1.8229 -0.3125 -3.5156 -0.9375 -5.0781 c -0.625 -1.6146 -1.5104 -2.9427 -2.6563 -3.9844 c -1.0416 -1.0938 -2.3958 -1.9791 -4.0624 -2.6563 c -1.6666 -0.625 -3.4635 -0.9375 -5.3906 -0.9375 l -8.5938 0 l 0 -5.9375 l 8.6719 0 c 2.7604 0 5.4166 0.49477 7.9688 1.4844 c 2.3959 0.88539 4.5052 2.2135 6.3281 3.9844 c 1.7709 1.6146 3.125 3.5938 4.0625 5.9375 c 0.98961 2.3959 1.4844 4.8438 1.4844 7.3438 c 0 2.7084 -0.49477 5.1563 -1.4844 7.3438 z M 126.0938 1.4059999999999988 l 27.813 0 l 0 5.9375 l -27.813 0 l 0 -5.9375 z M 126.0938 16.875 l 5.9375 0 l 0 21.719 l -5.9375 0 l 0 -21.719 z M 126.0938 16.875 l 25.078 0 l 0 5.8594 l -25.078 0 l 0 -5.8594 z M 167.0313 1.4059999999999988 l 6.4063 0 l 0 31.25 l 19.531 0 l 0 5.9375 l -25.938 0 l 0 -37.188 z M 223.281 16.875 l 0 -15.547 l -6.5625 0 l 0 37.344 l 6.5625 0 l 0 -21.797 z M 256.484 29.375 l 3.5156 -4.6875 l -0.078125 -0.15625 z M 276.875 1.4059999999999988 l -7.5 0 l -9.2969 13.359 l -9.2188 -13.359 l -7.7344 0 l 13.047 18.281 l -13.516 18.906 l 8.3594 0 z M 277.344 38.5937 l -10.313 -14.609 l -3.9063 5.2344 l 6.5625 9.375 l 7.6563 0 z" stroke-linecap="round" />
</g>
</svg>