<!DOCTYPE svg PUBLIC "-//W3C//DTD SVG 1.1//EN" "http://www.w3.org/Graphics/SVG/1.1/DTD/svg11.dtd">
<!-- Uploaded to: SVG Repo, www.svgrepo.com, Transformed by: SVG Repo Mixer Tools -->
<svg width="800px" height="800px" viewBox="0 0 24 24" fill="none" xmlns="http://www.w3.org/2000/svg">
<g id="SVGRepo_bgCarrier" stroke-width="0"/>
<g id="SVGRepo_tracerCarrier" stroke-linecap="round" stroke-linejoin="round"/>
<g id="SVGRepo_iconCarrier"> <path d="M7 16L2 16C1.44772 16 1 15.5523 1 15C1 14.4477 1.44772 14 2 14L7 14C8.65685 14 10 15.3431 10 17V22C10 22.5523 9.55228 23 9 23C8.44772 23 8 22.5523 8 22V17C8 16.4477 7.55228 16 7 16Z" fill="#ffffff"/> <path d="M10 2C10 1.44772 9.55229 1 9 1C8.44772 1 8 1.44772 8 2L8 7C8 7.55228 7.55228 8 7 8L2 8C1.44772 8 1 8.44771 1 9C1 9.55228 1.44772 10 2 10L7 10C8.65685 10 10 8.65685 10 7L10 2Z" fill="#ffffff"/> <path d="M14 22C14 22.5523 14.4477 23 15 23C15.5523 23 16 22.5523 16 22V17C16 16.4477 16.4477 16 17 16H22C22.5523 16 23 15.5523 23 15C23 14.4477 22.5523 14 22 14H17C15.3431 14 14 15.3431 14 17V22Z" fill="#ffffff"/> <path d="M14 7C14 8.65686 15.3431 10 17 10L22 10C22.5523 10 23 9.55228 23 9C23 8.44772 22.5523 8 22 8L17 8C16.4477 8 16 7.55229 16 7L16 2C16 1.44772 15.5523 1 15 1C14.4477 1 14 1.44772 14 2L14 7Z" fill="#ffffff"/> </g>
</svg>