<!DOCTYPE svg PUBLIC "-//W3C//DTD SVG 1.1//EN" "http://www.w3.org/Graphics/SVG/1.1/DTD/svg11.dtd">
<!-- Uploaded to: SVG Repo, www.svgrepo.com, Transformed by: SVG Repo Mixer Tools -->
<svg width="800px" height="800px" viewBox="0 0 24 24" fill="none" xmlns="http://www.w3.org/2000/svg">
<g id="SVGRepo_bgCarrier" stroke-width="0"/>
<g id="SVGRepo_tracerCarrier" stroke-linecap="round" stroke-linejoin="round"/>
<g id="SVGRepo_iconCarrier">
<path fill-rule="evenodd" clip-rule="evenodd" d="M5.163 3.819C5 4.139 5 4.559 5 5.4v13.2c0 .84 0 1.26.163 1.581a1.5 1.5 0 0 0 .656.655c.32.164.74.164 1.581.164h.2c.84 0 1.26 0 1.581-.163a1.5 1.5 0 0 0 .656-.656c.163-.32.163-.74.163-1.581V5.4c0-.84 0-1.26-.163-1.581a1.5 1.5 0 0 0-.656-.656C8.861 3 8.441 3 7.6 3h-.2c-.84 0-1.26 0-1.581.163a1.5 1.5 0 0 0-.656.656zm9 0C14 4.139 14 4.559 14 5.4v13.2c0 .84 0 1.26.164 1.581a1.5 1.5 0 0 0 .655.655c.32.164.74.164 1.581.164h.2c.84 0 1.26 0 1.581-.163a1.5 1.5 0 0 0 .655-.656c.164-.32.164-.74.164-1.581V5.4c0-.84 0-1.26-.163-1.581a1.5 1.5 0 0 0-.656-.656C17.861 3 17.441 3 16.6 3h-.2c-.84 0-1.26 0-1.581.163a1.5 1.5 0 0 0-.655.656z" fill="#ffffff"/>
</g>
</svg>